<?xml version="1.0" encoding="UTF-8" standalone="no"?>
<svg version="1.0" width="320" height="240"
  xmlns="http://www.w3.org/2000/svg">
 <rect x="0" y="0" width="320" height="240" fill="#131313" />
 <rect x="0" y="0" width="46" height="160" fill="#c0c0c0" />
 <rect x="46" y="0" width="46" height="160" fill="#c0c000" />
 <rect x="92" y="0" width="46" height="160" fill="#00c0c0" />
 <rect x="138" y="0" width="45" height="160" fill="#00c000" />
 <rect x="183" y="0" width="45" height="160" fill="#c000c0" />
 <rect x="228" y="0" width="46" height="160" fill="#c00000" />
 <rect x="274" y="0" width="46" height="160" fill="#0000c0" />

 <rect x="0" y="160" width="46" height="20" fill="#0000c0" />
 <rect x="92" y="160" width="46" height="20" fill="#c000c0" />
 <rect x="183" y="160" width="45" height="20" fill="#00c0c0" />
 <rect x="274" y="160" width="46" height="20" fill="#c0c0c0" />

 <rect x="0" y="180" width="60" height="60" fill="#00214c" />
 <rect x="60" y="180" width="60" height="60" fill="#ffffff" />
 <rect x="120" y="180" width="60" height="60" fill="#32006a" />
 <rect x="240" y="180" width="15" height="60" fill="#090909" />
 <rect x="272" y="180" width="15" height="60" fill="#1d1d1d" />
</svg>
