/* XPM */
static char * F:\240psuite\Git\240psuite\Dreamcast\PVR\pngs\SD_xpm[] = {
"48 32 2 1",
" 	c #000000",
".	c #FFFFFF",
"....                                        ....",
"...                                          ...",
"...        .....                   ..        ...",
"...        ....................     .        ...",
"...        .....................    .        ...",
"...        .....................    .        ...",
"...        ....................    ..        ...",
"...       ......................  ....       ...",
"...       ............................       ...",
"...      .............................       ...",
"....     ..............................      ...",
"....     ..............................     ....",
"......   ..............................     ....",
"......   ....    ..............    ....   ......",
"......   ...  .    ..........    .  ...   ......",
"......   .....        ....        .....   ......",
"..... .   ...  .      ....      .  ....   ......",
"..... .   ... .   . ........ .   . ...   . .....",
"..... .   ... .     ........     . ...   . .....",
"..... .   ... .     ........     . ...   . .....",
"...... .. ......   ..........   ......   . .....",
"......    .... ....... .. ....... .... .. ......",
".......... ......  .. .... ..  ......     ......",
".......... ...........    ........... ..........",
".......... ............  ............ ..........",
"........   ..........................   ........",
"........ .. ........................ .. ........",
".......   . .........      .........  .  .......",
"....... ..   ......................  ..  .......",
"....     ..    ........  ........     ..    ....",
"...  .. .. .     ..............      . . ..  ...",
"... . . . . .       ........         . .  .. ..."};
